<svg xmlns="http://www.w3.org/2000/svg" xmlns:xlink="http://www.w3.org/1999/xlink" version="1.1" x="0px" y="0px" viewBox="0 0 100 125" enable-background="new 0 0 100 100" xml:space="preserve"><circle cx="41.972" cy="30.516" r="11.329"/><circle cx="43.186" cy="57.625" r="8.497"/><circle cx="88.503" cy="58.435" r="8.497"/><path d="M81.625,55.603c-5.876,1.959-12.103,3.009-18.196,4.054c-1.173,0.202-2.416,0.523-3.605,0.581  c0.053-0.002-1.303-3.432-1.415-3.685c-0.431-0.955-0.83-1.962-1.359-2.868c-1.6-2.736-3.367-5.369-5.16-7.979  c-1.098-1.598-2.225-3.175-3.364-4.744c-2.043,1.563-4.59,2.502-7.361,2.502c-6.704,0-12.138-5.435-12.138-12.139  c0-0.988,0.13-1.943,0.354-2.863l-10.874,0.435c0,0-10.521,4.855-10.521,16.994c0,0-1.618,28.323,11.33,35.605l21.282-17.35  c-2.327-1.258-4.071-3.444-4.764-6.059l-13.281,8.033c0,0,4.046-16.993-4.045-24.276c-0.646-0.581-1.287-1.108-1.756-1.857  c-0.46-0.733-0.189-1.374,0.71-1.247c1.09,0.154,5.426,5.767,6.231,7.858c1.582,4.11,1.746,8.776,2.123,13.118  c0.015,0.178,0.21,1.425-0.025,1.55l4.221-2.223c0,0,0.299-0.114,0.371-0.194c0,0,3.511-1.775,3.512-1.85  c0.017-0.757,0.124-1.492,0.305-2.198c0.014-0.056,0.028-0.112,0.043-0.168c0.055-0.201,0.117-0.4,0.185-0.596  c0.021-0.061,0.044-0.121,0.066-0.182c0.074-0.197,0.149-0.394,0.243-0.604c0.182-0.406,0.395-0.797,0.629-1.172  c0.03-0.048,0.057-0.098,0.088-0.146c0.097-0.148,0.201-0.292,0.306-0.437c0.061-0.083,0.122-0.166,0.185-0.247  c0.102-0.13,0.207-0.26,0.315-0.385c0.077-0.088,0.156-0.174,0.235-0.259c0.108-0.116,0.215-0.232,0.328-0.342  c0.103-0.1,0.211-0.194,0.318-0.289c0.176-0.158,0.357-0.308,0.544-0.451c0.122-0.094,0.243-0.188,0.368-0.275  c0.111-0.079,0.227-0.151,0.342-0.224c0.125-0.081,0.253-0.158,0.383-0.232c0.116-0.066,0.234-0.132,0.353-0.194  c0.142-0.073,0.286-0.142,0.431-0.208c0.114-0.051,0.226-0.106,0.341-0.154c0.247-0.102,0.498-0.195,0.758-0.277  c0.926-0.293,1.91-0.453,2.932-0.453c4.267,0,9.006,3.328,9.563,7.775c0.268,2.134-0.164,4.149-1.067,6.076  c-0.166,0.354-2.247,3.692-2.021,3.951c1.078,1.232,2.16,2.463,3.223,3.709c1.215,1.423,2.953,4.358,5.109,4.088  c2.026-0.254,4.201-1.163,6.187-1.729c2.257-0.642,4.504-1.313,6.751-1.985c4.395-1.316,8.781-2.665,13.163-4.023  c0.18-0.057,2.725-0.972,2.791-0.868C87.288,64.503,81.625,55.603,81.625,55.603z"/></svg>