<svg xmlns="http://www.w3.org/2000/svg" xmlns:xlink="http://www.w3.org/1999/xlink" version="1.1" x="0px" y="0px" viewBox="0 0 100 125" enable-background="new 0 0 100 100" xml:space="preserve"><circle fill-rule="evenodd" clip-rule="evenodd" cx="51.647" cy="50.059" r="6.118"/><path fill-rule="evenodd" clip-rule="evenodd" d="M30.471,27.941c0,0-13.177-5.647-13.177-16.941c0,0-4.706,23.529,6.588,28.235  L30.471,27.941z"/><path fill-rule="evenodd" clip-rule="evenodd" d="M71.852,27.941c0,0,13.176-5.647,13.176-16.941c0,0,4.706,23.529-6.588,28.235  L71.852,27.941z"/><path fill-rule="evenodd" clip-rule="evenodd" stroke="#000000" stroke-miterlimit="10" d="M51.177,20.412  c-17.673,0-32,14.327-32,32c0,17.673,14.327,32,32,32c17.673,0,32-14.327,32-32C83.177,34.738,68.85,20.412,51.177,20.412z   M51.177,26.059c8.316,0,15.059,6.742,15.059,15.059c0,8.317-6.742,15.06-15.059,15.06c-8.317,0-15.059-6.742-15.059-15.06  C36.118,32.801,42.86,26.059,51.177,26.059z M30.471,58.059c0,0,18.823,24.471,43.294,0C73.765,58.059,53.059,105.117,30.471,58.059  z"/><ellipse fill-rule="evenodd" clip-rule="evenodd" cx="33.765" cy="85.823" rx="10.823" ry="5.177"/><ellipse fill-rule="evenodd" clip-rule="evenodd" cx="70.471" cy="85.823" rx="10.823" ry="5.177"/><circle fill-rule="evenodd" clip-rule="evenodd" cx="13.059" cy="58.529" r="7.059"/><circle fill-rule="evenodd" clip-rule="evenodd" cx="89.294" cy="58.529" r="7.059"/></svg>