<svg xmlns="http://www.w3.org/2000/svg" viewBox="0 0 100 125" x="0px" y="0px"><path d="m10.328125 16.742188c-2.9417141 0-5.328125 2.384452-5.328125 5.326171v55.863282c0 2.941724 2.3864109 5.326171 5.328125 5.326171h79.345703c2.941705 0 5.326172-2.384447 5.326172-5.326171v-55.863282c0-2.941719-2.384458-5.326172-5.326172-5.326171zm-.5175781 6.291015h5.3125001c.823573 0 1.490234.66667 1.490234 1.490235v2.927734c0 .823566-.666661 1.492187-1.490234 1.492187h-5.3125001c-.823564 0-1.4902344-.668621-1.4902344-1.492187v-2.927734c0-.823565.6666704-1.490235 1.4902344-1.490235zm75.0664061 0h5.3125c.823554 0 1.490233.66667 1.490235 1.490235v2.927734c0 .823566-.666672 1.492187-1.490235 1.492187h-5.3125c-.823564 0-1.490234-.668621-1.490234-1.492187v-2.927734c0-.823565.666671-1.490235 1.490234-1.490235zm-64.871094 1.996094h.597657l13.234375 13.234375c-.193426.265688-.385965.531318-.566407.80664l-13.265625-13.257812zm1.246094 0h1.380859l12.091797 12.085937c-.210351.249034-.405319.510328-.603515.769532zm2.087891 0h1.382812l10.992188 10.998047c-.228642.233717-.443084.479975-.660156.724609zm2.027344 0h1.382812l10.013672 10.013672c-.243261.215514-.488214.429303-.720703.65625zm2.058593 0h1.353516l9.101562 9.095703c-.256732.196431-.516922.387343-.763671.595703zm2.060547 0h1.351563l8.240234 8.236328c-.272017.178087-.53425.367834-.796875.558594zm2.027344 0h1.355469l7.474609 7.464844c-.289518.160276-.565169.341632-.845703.515625zm2.085937 0h1.357422l6.775391 6.779297c-.309813.141308-.616836.286935-.917969.443359zm2.033203 0h1.351563l6.193359 6.193359c-.329797.120146-.664855.228467-.986328.365235zm2.058594 0h1.351563l5.695312 5.695312c-.352138.096187-.702723.193896-1.046875.308594zm2.058594 0h1.353516l5.300781 5.300781c-.373539.068058-.737477.161449-1.103516.25zm1.998047 0h1.382812l5.060547 5.056641c-.41601.037444-.829949.081923-1.238281.144531zm2.089844 0h1.382812l4.972656 4.974609c-.064736-.000619-.128478-.003906-.193359-.003906-.389831 0-.775786.013067-1.160156.035156zm2.029297 0h1.380859l5.111328 5.115234c-.494746-.058376-.994966-.10158-1.5-.123047zm2.058593 0h1.38086l5.599609 5.603515c-.580287-.147023-1.162596-.289836-1.761719-.384765zm2.058594 0h1.351563l6.628906 6.634765c-.695106-.302955-1.407287-.571416-2.140625-.794921zm2.03125 0h1.380859l26.597657 26.597656v1.359375l-12.304688-12.294922c-1.886399-3.57179-4.819413-6.502586-8.392578-8.386718zm2.056641 0h1.380859l24.541016 24.560547v1.361328zm2.029296 0h1.382813l22.509766 22.509765v1.363282zm2.060547 0h1.38086l20.451172 20.451172v1.363281zm2.056641 0h1.378906l18.396485 18.412109v1.363282zm2.033203 0h1.382813l16.359375 16.34375v1.382812zm2.082031 0h1.355469l14.304688 14.304687v1.371094zm2.03125 0h1.355469l12.273438 12.259765v1.369141zm2.058594 0h1.357422l10.212891 10.201172v1.367187zm2.060547 0h1.351563l8.158203 8.158203v1.351562zm2.027344 0h1.357422l6.125 6.115234v1.367188zm2.05664 0h1.355469l4.070313 4.070312v1.365235zm2.058594 0h1.355469l2.011719 2.011719v1.363281zm2.056641 0h1.310547v1.3125zm-58.677735 1.460937l13.00586 13.00586c-.175558.282974-.357932.5614-.519531.853515l-12.486329-12.478515zm0 2.03125l12.257813 12.265625c-.156998.301143-.299537.610071-.441406.919922l-11.816407-11.808593zm0 2.035157l11.595703 11.607421c-.139328.326094-.250836.665316-.373046 1l-11.222657-11.230468zm29.994141 1.84375c9.74354 0 17.599609 7.856064 17.599609 17.599609 0 9.743546-7.856069 17.599609-17.599609 17.599609-9.74355 0-17.599609-7.856063-17.599609-17.599609 0-9.743545 7.856069-17.599609 17.599609-17.599609zm-29.994141.236328l11.035157 11.035156c-.11475.343088-.214201.691925-.310547 1.042969l-10.72461-10.72461zm0 2.035156l10.583985 10.589844c-.090297.36996-.186511.737581-.25586 1.115234l-10.328125-10.328125zm-10.1953121.367187h5.3125001c.823573 0 1.490234.66667 1.490234 1.490235v2.927734c0 .823566-.666661 1.492188-1.490234 1.492188h-5.3125001c-.823564 0-1.4902344-.668622-1.4902344-1.492188v-2.927734c0-.823565.6666704-1.490234 1.4902344-1.490235zm75.0664061 0h5.3125c.823554 0 1.490233.66667 1.490235 1.490235v2.927734c0 .823566-.666672 1.492188-1.490235 1.492188h-5.3125c-.823564 0-1.490234-.668622-1.490234-1.492188v-2.927734c0-.823565.666671-1.490234 1.490234-1.490235zm-64.871094 1.716797l10.222657 10.222657c-.059767.39314-.104167.791154-.140625 1.191406l-10.082032-10.087891zm0 2.021485l10.033203 10.02539c-.023532.396625-.039062.794811-.039062 1.197266 0 .05047.003532.100008.003906.150391l-9.998047-9.990235zm0 2.041015l10.015625 10.021485c.020779.500239.06019.996153.117188 1.486328l-10.132813-10.146484zm48.337891 1.230469l11.650391 11.660156v1.330078l-10.863282-10.863281c-.221956-.728257-.48678-1.436382-.787109-2.126953zm-48.337891.847656l10.240235 10.232422c.092362.585922.230839 1.154692.373047 1.722656l-10.613282-10.621093zm0 2.033204l10.853516 10.853515c.224412.741705.491259 1.465241.796875 2.167969l-11.650391-11.660156zm49.365235.177734l10.623047 10.630859v1.359375l-10.242188-10.242187c-.094178-.594378-.2354-1.172197-.380859-1.748047zm-49.365235 1.882812l12.292969 12.292969c1.888198 3.587333 4.830636 6.529771 8.417969 8.417969l7.269531 7.269531h-1.349609l-26.63086-26.652344zm-10.1953121.054688h5.3125001c.823573 0 1.490234.666669 1.490234 1.490234v2.927735c0 .823567-.666661 1.492187-1.490234 1.492187h-5.3125001c-.823564 0-1.4902344-.66862-1.4902344-1.492187v-2.927735c0-.823565.6666705-1.490234 1.4902344-1.490234zm75.0664061 0h5.3125c.823554 0 1.490233.666669 1.490235 1.490234v2.927735c0 .823567-.666672 1.492187-1.490235 1.492187h-5.3125c-.823564 0-1.490234-.66862-1.490234-1.492187v-2.927735c0-.823565.666671-1.490234 1.490234-1.490234zm-15.019531.611328l10.136719 10.142578v1.357422l-10.015625-10.015625c-.02124-.499703-.063712-.994736-.121094-1.484375zm-49.851563 1.384766l25.951172 25.929687h-1.380859l-24.570313-24.570312zm49.990235.78125l9.998047 10.005859v1.382813l-10.03125-10.03711c.022617-.3889.037109-.779333.037109-1.173828 0-.05964-.003383-.118216-.003906-.177734zm-49.990235 1.253906l23.894532 23.894531h-1.382813l-22.511719-22.53125zm49.910157.71875l10.078125 10.072266v1.382812l-10.222657-10.216797c.062325-.408365.107373-.822249.144532-1.238281zm-49.910157 1.361328l21.832032 21.814453h-1.34961l-20.482422-20.482422zm49.664063.439453l10.324219 10.324219v1.353516l-10.574219-10.574219c.088615-.36625.181902-.729757.25-1.103516zm-49.664063 1.587891l19.804688 19.787109h-1.380859l-18.423829-18.423828zm49.269532.078125l10.71875 10.71875v1.378906l-11.033203-11.041016c.116123-.347684.217231-.700796.314453-1.05664zm-.498047 1.560547l11.216797 11.216796v1.351563l-11.582032-11.582031c.136644-.321181.245183-.656837.365235-.986328zm-48.771485.382812l17.75 17.765625h-1.382812l-16.367188-16.382812zm48.179688 1.072266l11.808594 11.816406v1.378906l-12.253907-12.267578c.158213-.303797.302495-.615085.445313-.927734zm-58.3750001.773437h5.3125001c.823573 0 1.490234.666671 1.490234 1.490235v2.927734c0 .823567-.666661 1.492188-1.490234 1.492188h-5.3125001c-.823564 0-1.4902344-.668621-1.4902344-1.492188v-2.927734c0-.823565.6666705-1.490235 1.4902344-1.490235zm75.0664061 0h5.3125c.823554 0 1.490233.666671 1.490235 1.490235v2.927734c0 .823567-.666672 1.492188-1.490235 1.492188h-5.3125c-.823564 0-1.490234-.668621-1.490234-1.492188v-2.927734c0-.823565.666671-1.490235 1.490234-1.490235zm-64.871094.220703l15.714844 15.699219h-1.382812l-14.332032-14.318359zm47.511719.367188l12.476563 12.46289v1.378907l-12.998047-12.990235c.175227-.282936.360204-.559503.521484-.851562zm-.777344 1.273437l13.253907 13.244141v.814453h-.566407l-13.253906-13.253906c.192816-.265479.386542-.529615.566406-.804688zm-46.734375.41211l13.632813 13.646484h-1.330078l-12.302735-12.289062zm45.876953.785156l12.869141 12.861328h-1.384765l-12.089844-12.089844c.210904-.249794.406791-.511463.605468-.771484zm-.925781 1.126953l11.734375 11.734375h-1.351562l-11.03125-11.023437c.22405-.229811.435546-.470618.648437-.710938zm-44.951172.134766l11.59961 11.599609h-1.355469l-10.244141-10.232422zm43.957032.923828l10.669921 10.675781h-1.382812l-10.011719-10.017578c.244443-.216631.491049-.430027.72461-.658203zm-1.06836.972656l9.708985 9.703125h-1.355469l-9.115235-9.105469c.2564-.196501.515297-.389248.761719-.597656zm-42.888672.16211l9.541016 9.541015h-1.355469l-8.185547-8.173828zm41.730469.732421l8.808594 8.808594h-1.351563l-8.251953-8.248047c.271565-.178231.532743-.369675.794922-.560547zm-1.232422.826172l7.982422 7.982422h-1.351562l-7.472657-7.46875c.288184-.159671.562521-.340408.841797-.513672zm-40.498047.486328l7.486329 7.496094h-1.357422l-6.128907-6.128906zm39.195313.265625l7.226562 7.230469h-1.322265l-6.800781-6.796875c.302309-.138642.602469-.280541.896484-.433594zm-17.166016.595704c.707779.308479 1.434273.578633 2.181641.804687l5.830078 5.830078h-1.382813zm15.78125.072265l6.554688 6.5625h-1.355469l-6.191406-6.195312c.331752-.120906.668863-.229464.992187-.367188zm-1.488281.550781l6.011719 6.011719h-1.353516l-5.701172-5.701172c.351044-.096346.699881-.195797 1.042969-.310547zm-11.193359.417969c.577187.144932 1.156212.28548 1.751953.378906l5.216797 5.214844h-1.378907zm9.591796.037109l5.552735 5.556641h-1.351563l-5.304687-5.304687c.373573-.0686.737466-.162853 1.103515-.251954zm-34.720703.103516l5.453125 5.453125h-1.355468l-4.097657-4.089844zm33.015625.253906l5.199219 5.199219h-1.351562l-5.052735-5.056641c.404887-.0366.807461-.08213 1.205078-.142578zm-5.375.085938c.494687.058217.995036.099777 1.5.121094l4.988282 4.992187h-1.38086zm3.5625.103516l5.013672 5.009765h-1.382812l-4.976563-4.974609c.045813.00031.090834.003906.136719.003906.406409 0 .808523-.015068 1.208984-.039062zm-41.3984371 1.095703h5.3125001c.823573 0 1.490234.66667 1.490234 1.490234v2.927734c0 .823566-.666661 1.492188-1.490234 1.492188h-5.3125001c-.823564 0-1.4902344-.668622-1.4902344-1.492188v-2.927734c0-.823566.6666705-1.490234 1.4902344-1.490234zm75.0664061 0h5.3125c.823554 0 1.490233.66667 1.490235 1.490234v2.927734c0 .823566-.666672 1.492188-1.490235 1.492188h-5.3125c-.823564 0-1.490234-.668622-1.490234-1.492188v-2.927734c0-.823566.666671-1.490234 1.490234-1.490234zm-64.871094.519531l3.394532 3.394531h-1.351563l-2.042969-2.042969zm0 2.050781l1.341797 1.34375h-1.341797z"/><path d="m43.666691 42.222068c-1.15274 0-2.11111.958355-2.11111 2.111112 0 1.152753.95837 2.11111 2.11111 2.11111 1.15274 0 2.11111-.958357 2.11111-2.11111 0-1.152757-.95837-2.111112-2.11111-2.111112z"/><path d="m56.333361 42.222068c-1.15274 0-2.11111.958355-2.11111 2.111112 0 1.152753.95837 2.11111 2.11111 2.11111 1.15274 0 2.11111-.958357 2.11111-2.11111 0-1.152757-.95837-2.111112-2.11111-2.111112z"/><path d="m59.569471 56.388734c.68088-1.037655-.0559-2.023234-.98611-1.986111-.42476.01695-.79488.302618-1.02778.652778-1.69815 2.553134-4.63031 3.833333-7.55555 3.833333-2.92524 0-5.85741-1.2802-7.55556-3.833334-.2329-.350159-.60302-.635829-1.02778-.652778-.93023-.03712-1.66698.948457-.98611 1.986112 2.17395 3.313106 5.88437 4.944444 9.56945 4.944444 3.68508 0 7.39549-1.631338 9.56944-4.944444z"/></svg>