<svg xmlns="http://www.w3.org/2000/svg" xmlns:xlink="http://www.w3.org/1999/xlink" version="1.1" x="0px" y="0px" viewBox="0 0 100 125" enable-background="new 0 0 100 100" xml:space="preserve"><path d="M-126,15"/><path d="M77.397,13.83c-16.615-6.766-41.246-7.473-57.115,1.179c-1.88,1.025-3.337,3.21-3.282,5.245c0,0,0.451,16.815,0.451,16.815  C19.808,68.15,33.513,92,50.07,92s30.263-23.85,32.619-54.93c0,0,0.45-16.785,0.451-16.817  C83.222,17.183,80.742,15.191,77.397,13.83z M46.146,46.299c0,0-11.98,9.151-21.299,0C24.847,46.299,34.166,36.148,46.146,46.299z   M31.574,60.611c0,0,16.815,25.924,39.936,0C71.51,60.611,51.191,102.649,31.574,60.611z M55.115,46.299c0,0,9.318-10.151,21.3,0  C76.415,46.299,64.434,55.45,55.115,46.299z"/></svg>