<svg xmlns="http://www.w3.org/2000/svg" xmlns:xlink="http://www.w3.org/1999/xlink" version="1.1" x="0px" y="0px" viewBox="0 0 100 125" style="enable-background:new 0 0 100 100;" xml:space="preserve"><g><circle cx="31.9" cy="22.1" r="8.9"/><circle cx="68.1" cy="22.1" r="8.9"/><circle cx="50" cy="43.6" r="6.7"/><path d="M65.6,43.6c-1.1-1.1-3-1.1-4.1,0l-6.8,6.8c-2.6,2.6-6.8,2.6-9.4,0l-6.8-6.8c-1.1-1.1-2.9-1.2-4.1-0.1c-1.2,1.1-1.1,3,0,4.1   l9,8.9v27.3c0,1.6,1.4,3,3,2.9c1.6,0,2.9-1.3,2.9-2.9v-8.8c0-0.5,0.2-0.9,0.7-0.9c0.5,0,0.7,0.4,0.7,0.9v8.8c0,1.6,1.4,3,3,2.9   c1.6,0,2.9-1.3,2.9-2.9V56.6l8.9-8.9C66.7,46.5,66.7,44.7,65.6,43.6z"/><path d="M88.9,22.1c-1.5-1.5-3.9-1.5-5.4,0l-9.1,9.1c-3.5,3.5-9.1,3.5-12.5,0l-9-9c-0.6-0.6-1.4-1-2.2-1.1   c-1.2-0.2-2.5,0.1-3.5,1.1l-9.1,9.1c-3.5,3.5-9.1,3.5-12.5,0l-9-9c-1.5-1.5-3.9-1.6-5.4-0.1c-1.6,1.5-1.6,4-0.1,5.5l11.9,11.9v43.5   c0,2.2,1.9,4,4,3.9c2.1,0,3.9-1.7,3.9-3.8V64.1c0-0.7,0.4-1.2,1.1-1.2c0.7,0,1.1,0.5,1.1,1.2v18.8c0,2.2,1.9,4,4,3.9   c2.1,0,3.9-1.7,3.9-3.8V57.1l-8-7.9c-1-1-1.5-2.3-1.5-3.6c0-1.4,0.6-2.6,1.5-3.6c0.9-0.9,2.1-1.4,3.4-1.4c1.3,0,2.7,0.5,3.7,1.5   l0.8,0.8v-3.4l9.1-9.2l9.2,9.3l-0.6,2.7c0.1,0.4,0.1,0.8,0.1,1.1l1.2-1.2c0.9-0.9,2.2-1.5,3.5-1.5c1.3,0,2.6,0.5,3.6,1.5   c2,2,2,5.1,0,7.1l-8.3,8.3v10.9h0.4v14.5c0,2.2,1.9,4,4,3.9c2.1,0,3.9-1.7,3.9-3.8V68.4h2.1v14.5c0,2.2,1.9,4,4,3.9   c2.1,0,3.9-1.7,3.9-3.8V68.4h6.1L77,39.5l11.9-11.9C90.4,26.1,90.4,23.6,88.9,22.1z"/></g></svg>