<svg xmlns="http://www.w3.org/2000/svg" xmlns:xlink="http://www.w3.org/1999/xlink" version="1.1" x="0px" y="0px" viewBox="0 0 100 125" enable-background="new 0 0 100 100" xml:space="preserve"><path d="M55.5,1.2c-15.6,0-29.6,9.8-34.9,24.5c0,0-0.5,1.6-0.5,1.6L8.6,61.9c-0.2,0.6-0.1,1.3,0.3,1.8c0.4,0.5,1,0.8,1.6,0.8h6.7  c0,1.6,0,3.9,0.5,6.4h11.2c0,0-1.3,5.2-8.1,8.4c0.5,0.8,1.1,1.5,1.7,2.3c3.2,3.7,7.8,5.7,13.6,6.1V97c0,1.1,0.9,2,2,2h38.2  c1.1,0,2-0.9,2-2V67.6c9.1-7.1,14.4-17.8,14.4-29.3C92.6,17.8,76,1.2,55.5,1.2z M69.9,16.3l0.9-2.2l0.9,2.2l1.9,0.8l-2,0.8l-0.8,2  l-0.9-2L68,17L69.9,16.3z M39.6,16.3l0.9-2.2l0.9,2.2l1.9,0.8l-2,0.8l-0.8,2l-0.9-2l-2-0.9L39.6,16.3z M31.5,25.8  c0-0.8,0.6-1.4,1.4-1.4s1.4,0.6,1.4,1.4c0,0.8-0.6,1.4-1.4,1.4S31.5,26.6,31.5,25.8z M37.3,45.1l-0.8,2l-0.9-2l-2-0.9l1.9-0.8  l0.9-2.2l0.9,2.2l1.9,0.8L37.3,45.1z M68.3,49.3c0.1,0.5-0.1,1.1-0.6,1.4c-0.2,0.2-0.5,0.3-0.8,0.3c-0.2,0-0.5-0.1-0.7-0.2l-9.4-5  l-9.4,5c-0.5,0.2-1.1,0.2-1.5-0.1c-0.4-0.3-0.7-0.9-0.6-1.4l1.8-10.5l-7.6-7.4c-0.4-0.4-0.5-0.9-0.4-1.4c0.2-0.5,0.6-0.9,1.1-1  l10.6-1.5l4.7-9.6c0.5-1,2.1-1,2.5,0l4.7,9.6l10.6,1.5c0.5,0.1,1,0.4,1.1,1c0.2,0.5,0,1.1-0.4,1.4l-7.6,7.4L68.3,49.3z M75.6,45.7  c-0.8,0-1.4-0.6-1.4-1.4s0.6-1.4,1.4-1.4c0.8,0,1.4,0.6,1.4,1.4S76.4,45.7,75.6,45.7z M79.6,27.2c-0.8,0-1.4-0.6-1.4-1.4  c0-0.8,0.6-1.4,1.4-1.4S81,25,81,25.8C81,26.6,80.3,27.2,79.6,27.2z"/></svg>