<svg xmlns:dc="http://purl.org/dc/elements/1.1/" xmlns:cc="http://creativecommons.org/ns#" xmlns:rdf="http://www.w3.org/1999/02/22-rdf-syntax-ns#" xmlns:svg="http://www.w3.org/2000/svg" xmlns="http://www.w3.org/2000/svg" xmlns:sodipodi="http://sodipodi.sourceforge.net/DTD/sodipodi-0.dtd" xmlns:inkscape="http://www.inkscape.org/namespaces/inkscape" viewBox="0 0 8.4666665 10.583333625" version="1.1" x="0px" y="0px"><g transform="translate(0,-288.53332)"><path style="color:#000000;font-style:normal;font-variant:normal;font-weight:normal;font-stretch:normal;font-size:medium;line-height:normal;font-family:sans-serif;text-indent:0;text-align:start;text-decoration:none;text-decoration-line:none;text-decoration-style:solid;text-decoration-color:#000000;letter-spacing:normal;word-spacing:normal;text-transform:none;direction:ltr;block-progression:tb;writing-mode:lr-tb;baseline-shift:baseline;text-anchor:start;white-space:normal;clip-rule:nonzero;display:inline;overflow:visible;visibility:visible;opacity:1;isolation:auto;mix-blend-mode:normal;color-interpolation:sRGB;color-interpolation-filters:linearRGB;solid-color:#000000;solid-opacity:1;fill:#000000;fill-opacity:1;fill-rule:evenodd;stroke:none;stroke-width:0.26458335;stroke-linecap:round;stroke-linejoin:round;stroke-miterlimit:4;stroke-dasharray:none;stroke-dashoffset:0;stroke-opacity:1;color-rendering:auto;image-rendering:auto;shape-rendering:auto;text-rendering:auto;enable-background:accumulate" d="m 3.5625,291.11328 a 0.1323049,0.1323049 0 0 0 -0.1015625,0.20313 l 0.9902344,1.58398 a 0.1323049,0.1323049 0 1 0 0.2246093,-0.13867 L 3.6855469,291.17773 A 0.1323049,0.1323049 0 0 0 3.5625,291.11328 Z"/><path style="color:#000000;font-style:normal;font-variant:normal;font-weight:normal;font-stretch:normal;font-size:medium;line-height:normal;font-family:sans-serif;text-indent:0;text-align:start;text-decoration:none;text-decoration-line:none;text-decoration-style:solid;text-decoration-color:#000000;letter-spacing:normal;word-spacing:normal;text-transform:none;direction:ltr;block-progression:tb;writing-mode:lr-tb;baseline-shift:baseline;text-anchor:start;white-space:normal;clip-rule:nonzero;display:inline;overflow:visible;visibility:visible;opacity:1;isolation:auto;mix-blend-mode:normal;color-interpolation:sRGB;color-interpolation-filters:linearRGB;solid-color:#000000;solid-opacity:1;fill:#000000;fill-opacity:1;fill-rule:evenodd;stroke:none;stroke-width:0.26458332;stroke-linecap:round;stroke-linejoin:round;stroke-miterlimit:4;stroke-dasharray:none;stroke-dashoffset:0;stroke-opacity:1;color-rendering:auto;image-rendering:auto;shape-rendering:auto;text-rendering:auto;enable-background:accumulate" d="m 6.4394531,289.97266 -0.9472656,0.5332 a 0.13230489,0.13230489 0 0 0 -0.0625,0.15625 l 0.025391,0.0723 c 0.1149191,0.34903 0.5284901,0.50468 0.8417969,0.31445 l 0.1875,-0.11328 a 0.13231213,0.13231213 0 0 0 -0.1367188,-0.22657 l -0.1875,0.11329 c -0.15728,0.0955 -0.3319408,0.004 -0.4140624,-0.1543 l 0.8242187,-0.46485 c 0.067121,-0.0377 0.1466412,-0.0142 0.1816406,0.0566 l 0.015625,0.0351 c 0.071424,0.14457 0.1056368,0.30521 0.097656,0.4668 l -0.035156,0.68164 c -0.013474,0.27271 0.066436,0.54202 0.2246094,0.76367 l 0.6425781,0.90039 a 0.13230489,0.13230489 0 1 0 0.2148438,-0.1543 l -0.6425782,-0.90039 c -0.1233984,-0.17291 -0.1843719,-0.3823 -0.1738281,-0.5957 l 0.033203,-0.68359 c 0.0102,-0.20653 -0.031599,-0.41061 -0.1230468,-0.59571 l -0.017578,-0.0351 c -0.099665,-0.20174 -0.3527184,-0.28018 -0.5488281,-0.16992 z"/><path style="color:#000000;font-style:normal;font-variant:normal;font-weight:normal;font-stretch:normal;font-size:medium;line-height:normal;font-family:sans-serif;text-indent:0;text-align:start;text-decoration:none;text-decoration-line:none;text-decoration-style:solid;text-decoration-color:#000000;letter-spacing:normal;word-spacing:normal;text-transform:none;direction:ltr;block-progression:tb;writing-mode:lr-tb;baseline-shift:baseline;text-anchor:start;white-space:normal;clip-rule:nonzero;display:inline;overflow:visible;visibility:visible;opacity:1;isolation:auto;mix-blend-mode:normal;color-interpolation:sRGB;color-interpolation-filters:linearRGB;solid-color:#000000;solid-opacity:1;fill:#000000;fill-opacity:1;fill-rule:evenodd;stroke:none;stroke-width:0.26458335;stroke-linecap:round;stroke-linejoin:round;stroke-miterlimit:4;stroke-dasharray:none;stroke-dashoffset:0;stroke-opacity:1;color-rendering:auto;image-rendering:auto;shape-rendering:auto;text-rendering:auto;enable-background:accumulate" d="m 4.2636719,289.71094 -0.064453,0.0371 c -0.083345,0.0477 -0.1396979,0.12617 -0.1601563,0.21289 a 0.13264005,0.13264005 0 1 0 0.2578125,0.0625 c 0.00438,-0.0186 0.014562,-0.0362 0.033203,-0.0469 l 0.064453,-0.0371 c 0.064038,-0.0366 0.1426192,-0.0166 0.1835938,0.0449 l 0.5371094,0.80273 a 0.1323049,0.1323049 0 1 0 0.21875,-0.14649 l -0.5351563,-0.80468 c -0.1166274,-0.17512 -0.3525232,-0.22938 -0.5351562,-0.125 z"/><path style="color:#000000;font-style:normal;font-variant:normal;font-weight:normal;font-stretch:normal;font-size:medium;line-height:normal;font-family:sans-serif;text-indent:0;text-align:start;text-decoration:none;text-decoration-line:none;text-decoration-style:solid;text-decoration-color:#000000;letter-spacing:normal;word-spacing:normal;text-transform:none;direction:ltr;block-progression:tb;writing-mode:lr-tb;baseline-shift:baseline;text-anchor:start;white-space:normal;clip-rule:nonzero;display:inline;overflow:visible;visibility:visible;opacity:1;isolation:auto;mix-blend-mode:normal;color-interpolation:sRGB;color-interpolation-filters:linearRGB;solid-color:#000000;solid-opacity:1;fill:#000000;fill-opacity:1;fill-rule:evenodd;stroke:none;stroke-width:0.26458335;stroke-linecap:round;stroke-linejoin:round;stroke-miterlimit:4;stroke-dasharray:none;stroke-dashoffset:0;stroke-opacity:1;color-rendering:auto;image-rendering:auto;shape-rendering:auto;text-rendering:auto;enable-background:accumulate" d="m 4.7597656,289.38086 -0.0625,0.0371 a 0.1323049,0.1323049 0 1 0 0.1347656,0.22656 l 0.0625,-0.0371 c 0.058736,-0.035 0.1264336,-0.0189 0.1660157,0.043 l 0.515625,0.80469 a 0.1323049,0.1323049 0 1 0 0.2226562,-0.14258 l -0.515625,-0.80469 c -0.1119819,-0.17496 -0.3449583,-0.23322 -0.5234375,-0.12695 z"/><path style="color:#000000;font-style:normal;font-variant:normal;font-weight:normal;font-stretch:normal;font-size:medium;line-height:normal;font-family:sans-serif;text-indent:0;text-align:start;text-decoration:none;text-decoration-line:none;text-decoration-style:solid;text-decoration-color:#000000;letter-spacing:normal;word-spacing:normal;text-transform:none;direction:ltr;block-progression:tb;writing-mode:lr-tb;baseline-shift:baseline;text-anchor:start;white-space:normal;clip-rule:nonzero;display:inline;overflow:visible;visibility:visible;opacity:1;isolation:auto;mix-blend-mode:normal;color-interpolation:sRGB;color-interpolation-filters:linearRGB;solid-color:#000000;solid-opacity:1;fill:#000000;fill-opacity:1;fill-rule:evenodd;stroke:none;stroke-width:0.26458335;stroke-linecap:round;stroke-linejoin:round;stroke-miterlimit:4;stroke-dasharray:none;stroke-dashoffset:0;stroke-opacity:1;color-rendering:auto;image-rendering:auto;shape-rendering:auto;text-rendering:auto;enable-background:accumulate" d="m 5.2890625,289.11523 -0.0625,0.0371 a 0.13264912,0.13264912 0 1 0 0.1347656,0.22852 l 0.0625,-0.0371 c 0.058761,-0.035 0.126437,-0.0208 0.1660157,0.041 l 0.515625,0.80664 A 0.1323049,0.1323049 0 1 0 6.328125,290.04883 L 5.8125,289.24219 c -0.1119853,-0.175 -0.3449785,-0.23316 -0.5234375,-0.12696 z"/><path style="color:#000000;font-style:normal;font-variant:normal;font-weight:normal;font-stretch:normal;font-size:medium;line-height:normal;font-family:sans-serif;text-indent:0;text-align:start;text-decoration:none;text-decoration-line:none;text-decoration-style:solid;text-decoration-color:#000000;letter-spacing:normal;word-spacing:normal;text-transform:none;direction:ltr;block-progression:tb;writing-mode:lr-tb;baseline-shift:baseline;text-anchor:start;white-space:normal;clip-rule:nonzero;display:inline;overflow:visible;visibility:visible;opacity:1;isolation:auto;mix-blend-mode:normal;color-interpolation:sRGB;color-interpolation-filters:linearRGB;solid-color:#000000;solid-opacity:1;fill:#000000;fill-opacity:1;fill-rule:evenodd;stroke:none;stroke-width:0.26458335;stroke-linecap:round;stroke-linejoin:round;stroke-miterlimit:4;stroke-dasharray:none;stroke-dashoffset:0;stroke-opacity:1;color-rendering:auto;image-rendering:auto;shape-rendering:auto;text-rendering:auto;enable-background:accumulate" d="m 4.0449219,290.3125 -0.091797,0.0566 c -0.1806056,0.11223 -0.2365849,0.35538 -0.1230469,0.53516 l 1.2011719,1.90429 c 0.068066,0.10777 0.1861211,0.22392 0.3613281,0.26758 0.1219337,0.0304 0.2212739,0.10918 0.2753907,0.2168 l 0.4960937,0.98633 a 0.13233037,0.13233037 0 1 0 0.2363281,-0.11914 l -0.4960937,-0.98633 c -0.090535,-0.18004 -0.2573937,-0.30571 -0.4492188,-0.35352 -0.094451,-0.0235 -0.1567942,-0.0871 -0.1992187,-0.15429 l -1.203125,-1.9043 c -0.036882,-0.0584 -0.020198,-0.13114 0.039063,-0.16797 l 0.091797,-0.0566 c 0.064032,-0.0398 0.1453244,-0.0218 0.1855468,0.041 l 0.3242188,0.50782 a 0.1323049,0.1323049 0 1 0 0.2226562,-0.14258 l -0.3242187,-0.50781 c -0.1171094,-0.18296 -0.362384,-0.23767 -0.546875,-0.12305 z"/><path style="color:#000000;font-style:normal;font-variant:normal;font-weight:normal;font-stretch:normal;font-size:medium;line-height:normal;font-family:sans-serif;text-indent:0;text-align:start;text-decoration:none;text-decoration-line:none;text-decoration-style:solid;text-decoration-color:#000000;letter-spacing:normal;word-spacing:normal;text-transform:none;direction:ltr;block-progression:tb;writing-mode:lr-tb;baseline-shift:baseline;text-anchor:start;white-space:normal;clip-rule:nonzero;display:inline;overflow:visible;visibility:visible;opacity:1;isolation:auto;mix-blend-mode:normal;color-interpolation:sRGB;color-interpolation-filters:linearRGB;solid-color:#000000;solid-opacity:1;fill:#000000;fill-opacity:1;fill-rule:nonzero;stroke:none;stroke-width:0.26458335;stroke-linecap:round;stroke-linejoin:round;stroke-miterlimit:4;stroke-dasharray:none;stroke-dashoffset:0;stroke-opacity:1;color-rendering:auto;image-rendering:auto;shape-rendering:auto;text-rendering:auto;enable-background:accumulate" d="m 1.703125,295.28125 a 0.1323049,0.1323049 0 0 0 -0.091797,0.0566 c 0,0 -0.069449,0.0994 -0.1386719,0.21875 -0.034611,0.0597 -0.069682,0.12383 -0.097656,0.1875 -0.027975,0.0637 -0.050781,0.12081 -0.050781,0.19727 0,0.21762 0.1788627,0.39648 0.3964843,0.39648 0.217623,0 0.3964844,-0.17886 0.3964844,-0.39648 0,-0.0765 -0.02476,-0.1336 -0.052734,-0.19727 -0.027975,-0.0637 -0.063045,-0.12784 -0.097656,-0.1875 -0.069223,-0.11933 -0.1386719,-0.21875 -0.1386719,-0.21875 a 0.1323049,0.1323049 0 0 0 -0.125,-0.0566 z m 0.017578,0.38086 c 0.00848,0.014 0.00896,0.0125 0.017578,0.0273 0.031534,0.0544 0.06235,0.11092 0.083984,0.16016 0.021635,0.0492 0.029297,0.0952 0.029297,0.0918 0,0.0746 -0.056229,0.13281 -0.1308594,0.13281 -0.074626,0 -0.1328125,-0.0582 -0.1328125,-0.13281 0,0.003 0.00766,-0.0426 0.029297,-0.0918 0.021635,-0.0492 0.054403,-0.1058 0.085937,-0.16016 0.00866,-0.0149 0.00907,-0.0132 0.017578,-0.0273 z"/><path style="color:#000000;font-style:normal;font-variant:normal;font-weight:normal;font-stretch:normal;font-size:medium;line-height:normal;font-family:sans-serif;text-indent:0;text-align:start;text-decoration:none;text-decoration-line:none;text-decoration-style:solid;text-decoration-color:#000000;letter-spacing:normal;word-spacing:normal;text-transform:none;direction:ltr;block-progression:tb;writing-mode:lr-tb;baseline-shift:baseline;text-anchor:start;white-space:normal;clip-rule:nonzero;display:inline;overflow:visible;visibility:visible;opacity:1;isolation:auto;mix-blend-mode:normal;color-interpolation:sRGB;color-interpolation-filters:linearRGB;solid-color:#000000;solid-opacity:1;fill:#000000;fill-opacity:1;fill-rule:nonzero;stroke:none;stroke-width:0.26458335;stroke-linecap:round;stroke-linejoin:round;stroke-miterlimit:4;stroke-dasharray:none;stroke-dashoffset:0;stroke-opacity:1;color-rendering:auto;image-rendering:auto;shape-rendering:auto;text-rendering:auto;enable-background:accumulate" d="m 2.4960938,294.22266 a 0.1323049,0.1323049 0 0 0 -0.091797,0.0566 c 0,0 -0.067496,0.0994 -0.1367188,0.21875 -0.034611,0.0597 -0.069682,0.12382 -0.097656,0.1875 -0.027975,0.0637 -0.052734,0.12081 -0.052734,0.19726 0,0.21763 0.1788674,0.39649 0.3964844,0.39649 0.2176155,0 0.3964843,-0.17886 0.3964843,-0.39649 0,-0.0765 -0.02476,-0.13359 -0.052734,-0.19726 -0.027975,-0.0637 -0.063045,-0.12784 -0.097656,-0.1875 -0.069223,-0.11933 -0.1367187,-0.21875 -0.1367187,-0.21875 a 0.1323049,0.1323049 0 0 0 -0.1269531,-0.0566 z m 0.017578,0.38086 c 0.00848,0.014 0.00896,0.0125 0.017578,0.0273 0.031534,0.0544 0.062349,0.11286 0.083984,0.16211 0.021635,0.0492 0.03125,0.0932 0.03125,0.0898 0,0.0746 -0.05818,0.13281 -0.1328125,0.13281 -0.074637,0 -0.1328125,-0.0582 -0.1328125,-0.13281 0,0.003 0.00962,-0.0406 0.03125,-0.0898 0.021635,-0.0493 0.05245,-0.10775 0.083984,-0.16211 0.00862,-0.0149 0.0091,-0.0133 0.017578,-0.0273 z"/><path style="color:#000000;font-style:normal;font-variant:normal;font-weight:normal;font-stretch:normal;font-size:medium;line-height:normal;font-family:sans-serif;text-indent:0;text-align:start;text-decoration:none;text-decoration-line:none;text-decoration-style:solid;text-decoration-color:#000000;letter-spacing:normal;word-spacing:normal;text-transform:none;direction:ltr;block-progression:tb;writing-mode:lr-tb;baseline-shift:baseline;text-anchor:start;white-space:normal;clip-rule:nonzero;display:inline;overflow:visible;visibility:visible;opacity:1;isolation:auto;mix-blend-mode:normal;color-interpolation:sRGB;color-interpolation-filters:linearRGB;solid-color:#000000;solid-opacity:1;fill:#000000;fill-opacity:1;fill-rule:evenodd;stroke:none;stroke-width:0.26458335;stroke-linecap:round;stroke-linejoin:round;stroke-miterlimit:4;stroke-dasharray:none;stroke-dashoffset:0;stroke-opacity:1;color-rendering:auto;image-rendering:auto;shape-rendering:auto;text-rendering:auto;enable-background:accumulate" d="m 4.0605469,292 a 0.1323049,0.1323049 0 0 0 -0.068359,0.0254 c 0,0 -0.2840006,0.18874 -0.4003906,0.23633 -0.059384,0.0243 -0.1391886,0.0341 -0.2324219,0.0469 -0.093233,0.0128 -0.2002819,0.0291 -0.3046875,0.0899 -0.1081642,0.0629 -0.1705155,0.15532 -0.2226563,0.22851 -0.052141,0.0732 -0.093937,0.12812 -0.1367187,0.15235 -0.037189,0.0211 -0.1005232,0.0289 -0.1855469,0.0352 -0.085024,0.006 -0.1935134,0.0103 -0.2988281,0.0723 -0.1337537,0.0786 -0.2054181,0.19987 -0.2695313,0.29883 -0.064113,0.099 -0.1189452,0.17507 -0.1816406,0.21093 -0.095792,0.0549 -0.2289468,0.0775 -0.3535156,0.0684 -0.024589,-0.002 -0.1074975,-0.028 -0.171875,-0.0547 -0.064377,-0.0267 -0.1152344,-0.0508 -0.1152344,-0.0508 a 0.1323049,0.1323049 0 1 0 -0.12109372,0.23437 c 0,0 0.060219,0.0297 0.13476562,0.0605 0.074547,0.0309 0.1595305,0.0674 0.2539063,0.0742 0.1658486,0.0121 0.3469367,-0.0116 0.5039062,-0.10157 0.1350569,-0.0773 0.2090809,-0.19949 0.2734375,-0.29883 0.064357,-0.0993 0.1189967,-0.17607 0.1816406,-0.21289 0.036322,-0.0214 0.099189,-0.0309 0.1835938,-0.0371 0.084405,-0.006 0.1891567,-0.0104 0.2949219,-0.0703 0.1092608,-0.0619 0.1722105,-0.15301 0.2246093,-0.22656 0.052399,-0.0736 0.095778,-0.12935 0.1386719,-0.1543 0.050519,-0.0294 0.1194357,-0.0427 0.2070312,-0.0547 0.087596,-0.012 0.1923159,-0.0209 0.2988282,-0.0645 0.1878438,-0.0768 0.4492187,-0.26562 0.4492187,-0.26562 A 0.1323049,0.1323049 0 0 0 4.0605469,292 Z"/><path style="color:#000000;font-style:normal;font-variant:normal;font-weight:normal;font-stretch:normal;font-size:medium;line-height:normal;font-family:sans-serif;text-indent:0;text-align:start;text-decoration:none;text-decoration-line:none;text-decoration-style:solid;text-decoration-color:#000000;letter-spacing:normal;word-spacing:normal;text-transform:none;direction:ltr;block-progression:tb;writing-mode:lr-tb;baseline-shift:baseline;text-anchor:start;white-space:normal;clip-rule:nonzero;display:inline;overflow:visible;visibility:visible;opacity:1;isolation:auto;mix-blend-mode:normal;color-interpolation:sRGB;color-interpolation-filters:linearRGB;solid-color:#000000;solid-opacity:1;fill:#000000;fill-opacity:1;fill-rule:nonzero;stroke:none;stroke-width:0.26458335;stroke-linecap:round;stroke-linejoin:round;stroke-miterlimit:4;stroke-dasharray:none;stroke-dashoffset:0;stroke-opacity:1;color-rendering:auto;image-rendering:auto;shape-rendering:auto;text-rendering:auto;enable-background:accumulate" d="m 3.7675781,291.45703 a 0.1323049,0.1323049 0 0 0 -0.056641,0.0195 l -2.5742187,1.61328 c -0.60947286,0.38199 -0.93266201,1.11488 -0.61523442,1.78321 a 0.1323049,0.1323049 0 0 0 0.18945312,0.0566 l 3.703125,-2.32031 a 0.1323049,0.1323049 0 1 0 -0.140625,-0.22266 l -3.51953125,2.20312 c -0.13464568,-0.48694 0.0595374,-0.98464 0.52343755,-1.27539 l 2.5742187,-1.61328 a 0.1323049,0.1323049 0 0 0 -0.083984,-0.24414 z"/></g></svg>