<svg xmlns="http://www.w3.org/2000/svg" xmlns:xlink="http://www.w3.org/1999/xlink" version="1.1" x="0px" y="0px" viewBox="0 0 512 640" enable-background="new 0 0 512 512" xml:space="preserve"><metadata><?xpacket begin="&#65279;" id="W5M0MpCehiHzreSzNTczkc9d"?><x:xmpmeta xmlns:x="adobe:ns:meta/" x:xmptk="Adobe XMP Core 5.3-c011 66.145661, 2012/02/06-14:56:27        "/><?xpacket end="w"?></metadata><g><g><path d="M384.204,115.838l-39.786-21.76l-21.761-39.785c-2.192-4.008-6.398-6.501-10.968-6.501c-4.568,0-8.773,2.493-10.967,6.503    l-21.757,39.783l-39.788,21.76c-4.008,2.193-6.502,6.398-6.502,10.967c0,4.57,2.494,8.775,6.502,10.967l39.786,21.76    l21.759,39.785c2.192,4.01,6.397,6.502,10.968,6.502c4.569,0,8.773-2.492,10.967-6.502l21.761-39.785l39.786-21.76    c4.009-2.191,6.502-6.396,6.502-10.967C390.706,122.236,388.212,118.031,384.204,115.838z"/><path d="M199.143,63.172l-21.029-11.5l-11.502-21.03c-2.191-4.009-6.396-6.502-10.967-6.502c-4.568,0-8.774,2.493-10.967,6.503    l-11.5,21.029l-21.029,11.5c-4.01,2.192-6.503,6.398-6.503,10.967c0,4.57,2.493,8.775,6.503,10.968l21.029,11.501l11.5,21.029    c2.192,4.01,6.398,6.503,10.967,6.503c4.57,0,8.775-2.493,10.968-6.503l11.501-21.029l21.029-11.501    c4.009-2.192,6.502-6.397,6.502-10.968C205.645,69.57,203.152,65.365,199.143,63.172z"/><path d="M329.732,253.649L34.751,83.343c-4.641-2.68-10.359-2.68-15,0c-4.642,2.679-7.5,7.632-7.5,12.99v340.613    c0,5.358,2.858,10.311,7.5,12.99c2.32,1.34,4.91,2.01,7.5,2.01s5.18-0.67,7.5-2.01L329.73,279.629c4.642-2.68,7.5-7.631,7.5-12.99    C337.23,261.28,334.373,256.328,329.732,253.649z"/><path d="M499.34,213.119c-0.98-3.746-3.646-6.828-7.211-8.343c-0.518-0.22-52.084-22.442-77.277-60.538    c-3.043-4.603-8.741-6.664-14.026-5.076c-5.282,1.59-8.899,6.453-8.899,11.971v230.18c-18.02-12.967-44.334-21.011-74.108-21.011    c-55.575,0-99.109,28.017-99.109,63.779s43.534,63.779,99.109,63.779s99.108-28.017,99.108-63.779V184.83    c17.942,16.883,37.934,28.979,51.064,35.962l-23.766,30.804c-4.217,5.465-3.203,13.314,2.263,17.532    c5.466,4.215,13.314,3.204,17.532-2.262l33.132-42.944C499.516,220.855,500.321,216.865,499.34,213.119z"/></g></g></svg>