<svg xmlns="http://www.w3.org/2000/svg" xmlns:xlink="http://www.w3.org/1999/xlink" version="1.1" x="0px" y="0px" viewBox="0 0 100 125" enable-background="new 0 0 100 100" xml:space="preserve"><g><path d="M51.142,45.958c-0.432,0-0.87-0.116-1.265-0.358c-1.135-0.699-1.489-2.187-0.79-3.321c1.491-2.416,2.244-5.235,2.244-8.377   c0-8.829-7.214-16.013-16.083-16.013c-8.85,0-16.048,7.185-16.048,16.013c0,2.987,0.812,5.883,2.351,8.375   c0.701,1.135,0.349,2.622-0.786,3.322c-1.136,0.699-2.623,0.346-3.321-0.786c-2.009-3.257-3.071-7.029-3.071-10.911   c0-11.491,9.364-20.84,20.875-20.84c11.531,0,20.911,9.35,20.911,20.84c0,3.993-1.025,7.765-2.96,10.909   C52.742,45.551,51.95,45.958,51.142,45.958z"/><path d="M25.312,57.313c-1.333,0-2.413-1.082-2.413-2.414v-8.045c0-1.332,1.08-2.414,2.413-2.414c1.334,0,2.414,1.082,2.414,2.414   v8.045C27.727,56.231,26.646,57.313,25.312,57.313z"/><path d="M31.75,57.313c-1.334,0-2.414-1.082-2.414-2.414v-8.045c0-1.332,1.08-2.414,2.414-2.414c1.333,0,2.413,1.082,2.413,2.414   v8.045C34.163,56.231,33.083,57.313,31.75,57.313z"/><path d="M38.187,57.313c-1.333,0-2.414-1.082-2.414-2.414v-8.045c0-1.332,1.081-2.414,2.414-2.414s2.414,1.082,2.414,2.414v8.045   C40.601,56.231,39.52,57.313,38.187,57.313z"/><path d="M44.624,57.313c-1.333,0-2.415-1.082-2.415-2.414v-8.045c0-1.332,1.082-2.414,2.415-2.414c1.331,0,2.413,1.082,2.413,2.414   v8.045C47.037,56.231,45.955,57.313,44.624,57.313z"/><circle cx="43.269" cy="30.763" r="4.928"/><path d="M38.44,42.027c0,1.609-1.442-1.609-3.218-1.609c-1.776,0-3.219,3.219-3.219,1.609s1.442-6.437,3.219-6.437   C36.998,35.59,38.44,40.417,38.44,42.027z"/><circle cx="26.668" cy="30.763" r="4.928"/></g><path d="M89.89,84.126L59.946,58.348c5.664-6.076,9.14-14.218,9.14-23.16c0-18.748-15.252-34-34-34c-18.748,0-34,15.252-34,34  c0,18.748,15.252,34,34,34c8.18,0,15.693-2.904,21.565-7.734c0.024,0.026,0.042,0.058,0.067,0.083L82.516,91.5  c2.851,2.851,6.814,3.513,8.851,1.477C93.401,90.941,92.74,86.977,89.89,84.126z M5.086,35.188c0-16.569,13.431-30,30-30  s30,13.431,30,30s-13.431,30-30,30S5.086,51.757,5.086,35.188z"/></svg>