<svg xmlns="http://www.w3.org/2000/svg" data-name="Layer 1" viewBox="0 0 100 125" x="0px" y="0px"><title>72 all</title><path d="M84.78,13.06a11,11,0,1,0-11,11A11,11,0,0,0,84.78,13.06Zm-18.07,0a7,7,0,1,1,7,7A7,7,0,0,1,66.71,13.06Z"/><path d="M85.58,27H61.92A2,2,0,0,0,60,28.38l-6.48,20a6,6,0,0,0,4.2,7.66L54,68.38A2,2,0,0,0,55.94,71h8.8V92.48a5.49,5.49,0,0,0,9,4.24,5.49,5.49,0,0,0,9-4.24V71h8.8a2,2,0,0,0,1.9-2.63l-4-12.2A6,6,0,0,0,94,48.4l-6.48-20A2,2,0,0,0,85.58,27ZM70.25,94a1.5,1.5,0,0,1-1.5-1.5V71h3V92.44s0,0,0,0A1.5,1.5,0,0,1,70.25,94Zm8.5-1.5a1.5,1.5,0,0,1-3,0V71h3ZM89.87,51.42a2,2,0,0,1-1.62.82h-.11L84.68,41.78A2,2,0,0,0,80.88,43L88.78,67H58.64l7.22-24A2,2,0,1,0,62,41.83L58.9,52.21a2,2,0,0,1-1.56-2.58l6-18.63H84.12l6,18.63A2,2,0,0,1,89.87,51.42Z"/><path d="M10.68,63.13a4.92,4.92,0,0,0,4.77-3.71l.29-1.15L15.09,89.8a2,2,0,0,0,2,2H19v.64a5.49,5.49,0,0,0,9,4.24,5.49,5.49,0,0,0,9-4.24v-.64h1.92a2,2,0,0,0,2-2l-.65-31.49.29,1.12a4.93,4.93,0,0,0,9.58-2.31L43.79,28.57a2,2,0,0,0-2-1.57H14.18a2,2,0,0,0-2,1.57L5.87,57.12a4.92,4.92,0,0,0,4.8,6ZM36.89,87.84H30V57.56h6.25ZM26,87.84H19.13l.62-30.28H26ZM24.51,94a1.5,1.5,0,0,1-1.5-1.5v-.64h3v.59s0,0,0,0A1.5,1.5,0,0,1,24.51,94Zm8.5-1.5a1.5,1.5,0,1,1-3,0v-.64h3ZM9.77,58l6-27H40.23l6,27a.92.92,0,0,1-.91,1.12.92.92,0,0,1-.89-.69L39.87,40.62a2,2,0,0,0-3.93.63s0,.06,0,.08l.25,12.24H19.84l.25-12.24a2,2,0,0,0,0-.25,2,2,0,0,0-3.92-.71L11.57,58.44a.92.92,0,0,1-.9.69A.92.92,0,0,1,9.77,58Z"/><path d="M28,2a11,11,0,1,0,11,11A11,11,0,0,0,28,2ZM28,20.1a7,7,0,1,1,7-7A7,7,0,0,1,28,20.1Z"/><path d="M43.67,17.83a4,4,0,0,0,0,5.91l.85.8,6.23,5.91L57,24.54l.85-.8a4,4,0,0,0,0-5.91h0a4.57,4.57,0,0,0-6.23,0h0l-.85.8-.85-.8A4.57,4.57,0,0,0,43.67,17.83Z"/></svg>