<svg xmlns="http://www.w3.org/2000/svg" xmlns:xlink="http://www.w3.org/1999/xlink" version="1.1" x="0px" y="0px" viewBox="0 0 100 125" enable-background="new 0 0 100 100" xml:space="preserve"><g><path d="M20,30h20c0,5.52-4.48,10-10,10S20,35.52,20,30z"/><path d="M47,70c0,1.1-0.89,2-2,2c-1.1,0-2-0.9-2-2s0.9-2,2-2C46.11,68,47,68.9,47,70z"/><path d="M47,60c0,1.1-0.89,2-2,2c-1.1,0-2-0.9-2-2s0.9-2,2-2C46.11,58,47,58.9,47,60z"/><path d="M47,50c0,1.1-0.89,2-2,2c-1.1,0-2-0.9-2-2c0-1.1,0.9-2,2-2C46.11,48,47,48.9,47,50z"/><path d="M57,70c0,1.1-0.89,2-2,2c-1.1,0-2-0.9-2-2s0.9-2,2-2C56.11,68,57,68.9,57,70z"/><path d="M57,60c0,1.1-0.89,2-2,2c-1.1,0-2-0.9-2-2s0.9-2,2-2C56.11,58,57,58.9,57,60z"/><path d="M57,50c0,1.1-0.89,2-2,2c-1.1,0-2-0.9-2-2c0-1.1,0.9-2,2-2C56.11,48,57,48.9,57,50z"/><path d="M60,30h20c0,5.52-4.48,10-10,10S60,35.52,60,30z"/><path fill="#000000" d="M20,30h20c0,5.52-4.48,10-10,10S20,35.52,20,30z"/><path fill="#000000" d="M47,70c0,1.1-0.89,2-2,2c-1.1,0-2-0.9-2-2s0.9-2,2-2C46.11,68,47,68.9,47,70z"/><path fill="#000000" d="M47,60c0,1.1-0.89,2-2,2c-1.1,0-2-0.9-2-2s0.9-2,2-2C46.11,58,47,58.9,47,60z"/><path fill="#000000" d="M47,50c0,1.1-0.89,2-2,2c-1.1,0-2-0.9-2-2c0-1.1,0.9-2,2-2C46.11,48,47,48.9,47,50z"/><path fill="#000000" d="M57,70c0,1.1-0.89,2-2,2c-1.1,0-2-0.9-2-2s0.9-2,2-2C56.11,68,57,68.9,57,70z"/><path fill="#000000" d="M57,60c0,1.1-0.89,2-2,2c-1.1,0-2-0.9-2-2s0.9-2,2-2C56.11,58,57,58.9,57,60z"/><path fill="#000000" d="M57,50c0,1.1-0.89,2-2,2c-1.1,0-2-0.9-2-2c0-1.1,0.9-2,2-2C56.11,48,57,48.9,57,50z"/><path fill="#000000" d="M80,30c0,5.52-4.48,10-10,10s-10-4.48-10-10H80z"/><path d="M80,30c0,5.52-4.48,10-10,10s-10-4.48-10-10H80z"/><path d="M40,30c0,5.52-4.48,10-10,10s-10-4.48-10-10H40z"/><path d="M57,50c0,1.1-0.89,2-2,2c-1.1,0-2-0.9-2-2c0-1.1,0.9-2,2-2C56.11,48,57,48.9,57,50z"/><path d="M57,60c0,1.1-0.89,2-2,2c-1.1,0-2-0.9-2-2s0.9-2,2-2C56.11,58,57,58.9,57,60z"/><path d="M57,70c0,1.1-0.89,2-2,2c-1.1,0-2-0.9-2-2s0.9-2,2-2C56.11,68,57,68.9,57,70z"/><path d="M47,50c0,1.1-0.89,2-2,2c-1.1,0-2-0.9-2-2c0-1.1,0.9-2,2-2C46.11,48,47,48.9,47,50z"/><path d="M47,60c0,1.1-0.89,2-2,2c-1.1,0-2-0.9-2-2s0.9-2,2-2C46.11,58,47,58.9,47,60z"/><path d="M47,70c0,1.1-0.89,2-2,2c-1.1,0-2-0.9-2-2s0.9-2,2-2C46.11,68,47,68.9,47,70z"/><path d="M66.46,3.54C61.44,1.26,55.86,0,50,0c-5.86,0-11.44,1.26-16.46,3.54C19.66,9.81,10,23.78,10,40l0.17,60H20V85   c0-1.1,0.9-2,2-2c1.11,0,2,0.9,2,2v15h52V85c0-1.1,0.9-2,2-2c1.11,0,2,0.9,2,2v15h10V40C90,23.78,80.34,9.81,66.46,3.54z M50,76   c-19.88,0-36-16.12-36-36c0-15.14,9.35-28.1,22.59-33.41L40,10l5-3l5,3l5-3l5,3l3.41-3.41C76.65,11.9,86,24.86,86,40   C86,59.88,69.88,76,50,76z"/></g></svg>