<svg xmlns="http://www.w3.org/2000/svg" xmlns:xlink="http://www.w3.org/1999/xlink" version="1.1" x="0px" y="0px" viewBox="7.5 7.5 50 62.5" enable-background="new 7.5 7.5 50 50" xml:space="preserve"><path d="M56.354,23.784H37.229v-0.358c0-1.442-1.172-2.615-2.613-2.615h-3.531l3.23-3.871c0.084,0.014,0.168,0.026,0.256,0.026  c0.858,0,1.557-0.699,1.557-1.558c0-0.858-0.698-1.557-1.557-1.557s-1.557,0.698-1.557,1.557c0,0.402,0.157,0.765,0.407,1.042  l-3.156,3.782l-6.535-8.3c0.272-0.281,0.442-0.662,0.442-1.083c0-0.858-0.699-1.557-1.557-1.557s-1.557,0.698-1.557,1.557  c0,0.859,0.699,1.558,1.557,1.558c0.068,0,0.134-0.012,0.2-0.021l6.633,8.425h-3.556c-1.441,0-2.614,1.173-2.614,2.615v0.358H8.646  c-0.276,0-0.5,0.224-0.5,0.5v30.924c0,0.276,0.224,0.5,0.5,0.5h47.708c0.276,0,0.5-0.224,0.5-0.5V24.284  C56.854,24.008,56.63,23.784,56.354,23.784z M34.57,14.852c0.307,0,0.557,0.25,0.557,0.557c0,0.308-0.25,0.558-0.557,0.558  s-0.557-0.25-0.557-0.558C34.014,15.101,34.264,14.852,34.57,14.852z M22.057,10.849c0-0.307,0.25-0.557,0.557-0.557  s0.557,0.25,0.557,0.557c0,0.308-0.25,0.558-0.557,0.558S22.057,11.156,22.057,10.849z M24.278,23.426  c0-0.891,0.724-1.615,1.614-1.615h8.723c0.89,0,1.613,0.725,1.613,1.615v0.358H24.278V23.426z M55.854,54.708H9.146V24.784h46.708  V54.708z"/><path d="M12.508,27.552c-0.23,0.017-0.419,0.188-0.457,0.417c-1.302,7.814-1.302,15.74,0,23.555c0.038,0.228,0.227,0.4,0.457,0.417  c5.887,0.428,11.857,0.646,17.745,0.646c5.887,0,11.858-0.218,17.746-0.646c0.23-0.017,0.419-0.189,0.457-0.417  c1.302-7.814,1.302-15.74,0-23.555c-0.038-0.228-0.227-0.4-0.457-0.417C36.224,26.697,24.283,26.698,12.508,27.552z M47.533,50.971  c-11.473,0.816-23.087,0.816-34.559,0c-1.199-7.45-1.199-14.999,0-22.45c11.471-0.813,23.085-0.813,34.559,0  C48.732,35.972,48.732,43.521,47.533,50.971z"/><path d="M52.305,31.96c1.393,0,2.525-1.133,2.525-2.526s-1.133-2.526-2.525-2.526c-1.394,0-2.527,1.133-2.527,2.526  S50.911,31.96,52.305,31.96z M52.305,27.907c0.841,0,1.525,0.685,1.525,1.526s-0.685,1.526-1.525,1.526  c-0.842,0-1.527-0.685-1.527-1.526S51.463,27.907,52.305,27.907z"/><path d="M52.305,47.532c-1.393,0-2.525,1.134-2.525,2.528c0,1.393,1.133,2.525,2.525,2.525s2.525-1.133,2.525-2.525  C54.83,48.666,53.697,47.532,52.305,47.532z M52.305,51.586c-0.841,0-1.525-0.685-1.525-1.525c0-0.843,0.685-1.528,1.525-1.528  s1.525,0.686,1.525,1.528C53.83,50.901,53.146,51.586,52.305,51.586z"/><path d="M51.291,35.488h2.027c0.276,0,0.5-0.224,0.5-0.5s-0.224-0.5-0.5-0.5h-2.027c-0.276,0-0.5,0.224-0.5,0.5  S51.015,35.488,51.291,35.488z"/><path d="M51.291,38.66h2.027c0.276,0,0.5-0.224,0.5-0.5s-0.224-0.5-0.5-0.5h-2.027c-0.276,0-0.5,0.224-0.5,0.5  S51.015,38.66,51.291,38.66z"/><path d="M51.291,41.832h2.027c0.276,0,0.5-0.224,0.5-0.5s-0.224-0.5-0.5-0.5h-2.027c-0.276,0-0.5,0.224-0.5,0.5  S51.015,41.832,51.291,41.832z"/><path d="M51.291,45.004h2.027c0.276,0,0.5-0.224,0.5-0.5s-0.224-0.5-0.5-0.5h-2.027c-0.276,0-0.5,0.224-0.5,0.5  S51.015,45.004,51.291,45.004z"/></svg>