<svg xmlns="http://www.w3.org/2000/svg" xmlns:xlink="http://www.w3.org/1999/xlink" version="1.1" x="0px" y="0px" viewBox="0 0 200 250" style="enable-background:new 0 0 200 200;" xml:space="preserve"><g><path d="M36.7,122.4c-0.9,0-1.7,0.3-2.2,0.6c-0.6,0.4-1,0.7-1.1,1.2c-0.3,1-0.8,1.7-1.6,2.3c-0.8,0.6-1.8,1-3,1.1   c-2.3,0.3-4.6-0.7-5.6-2.2c-0.4-0.6-0.7-1.4-0.8-2.3c-0.1-0.9-0.1-1.9,0.1-2.7c0.4-1.6,1.6-3,3.5-3.7c1.8-0.7,4.1-0.8,6,0.1   c1.9,0.8,3.4,2.7,3.9,5.1v0C36,122.3,36.3,122.4,36.7,122.4c0.4,0,0.7-0.2,0.8-0.6c0.1-1.4-0.1-3-0.7-4.4c-0.6-1.5-1.7-2.7-3-3.7   c-2.6-1.9-6.1-2.6-9.3-1.8c-1.6,0.4-3.3,1.1-4.6,2.3c-1.4,1.2-2.5,2.7-3.1,4.4c-0.6,1.7-0.8,3.5-0.6,5.2c0.1,1.7,0.7,3.6,1.8,5.1   c1.3,1.9,3.2,3.3,5.2,4.1c2,0.8,4.2,1.1,6.3,0.8c2.1-0.2,4.2-1,6-2.3c1.8-1.3,3.2-3.3,3.9-5.5c0.3-1,0.1-2-0.4-2.7   C38.3,122.8,37.6,122.4,36.7,122.4z"/><path d="M97.1,122.4c-0.9,0-1.7,0.3-2.2,0.6c-0.6,0.4-1,0.7-1.1,1.2c-0.3,1-0.8,1.7-1.6,2.3c-0.8,0.6-1.8,1-3,1.1   c-2.3,0.3-4.6-0.7-5.6-2.2c-0.4-0.6-0.7-1.4-0.8-2.3c-0.1-0.9-0.1-1.9,0.1-2.7c0.4-1.6,1.6-3,3.5-3.7c1.8-0.7,4.1-0.8,6,0.1   c1.9,0.8,3.4,2.7,3.9,5.1v0C96.4,122.3,96.8,122.4,97.1,122.4c0.4,0,0.7-0.2,0.8-0.6c0.1-1.4-0.1-3-0.7-4.4c-0.6-1.5-1.7-2.7-3-3.7   c-2.6-1.9-6.1-2.6-9.3-1.8c-1.6,0.4-3.3,1.1-4.6,2.3c-1.4,1.2-2.5,2.7-3.1,4.4c-0.6,1.7-0.8,3.5-0.6,5.2c0.1,1.7,0.7,3.6,1.8,5.1   c1.3,1.9,3.2,3.3,5.2,4.1c2,0.8,4.2,1.1,6.3,0.8c2.1-0.2,4.2-1,6-2.3c1.8-1.3,3.2-3.3,3.9-5.5c0.3-1,0.1-2-0.4-2.7   C98.8,122.8,98,122.4,97.1,122.4z"/><path d="M66.2,114.2c-1.4-1.2-3-1.9-4.6-2.3c-3.3-0.7-6.7-0.1-9.3,1.8c-1.3,1-2.4,2.3-3,3.7c-0.6,1.4-0.8,3-0.7,4.4   c0,0.4,0.4,0.6,0.8,0.6c0.4,0,0.8-0.2,0.8-0.5v0c0.5-2.5,2-4.3,3.9-5.1c1.9-0.8,4.2-0.8,6-0.1c1.9,0.7,3.1,2.1,3.5,3.7   c0.2,0.8,0.3,1.8,0.1,2.7c-0.1,0.9-0.4,1.7-0.8,2.3c-1,1.6-3.3,2.5-5.6,2.2c-1.1-0.1-2.2-0.5-3-1.1c-0.8-0.6-1.3-1.4-1.6-2.3   c-0.1-0.5-0.5-0.8-1.1-1.2c-0.6-0.3-1.4-0.6-2.2-0.6c-0.9,0-1.6,0.3-2.2,1c-0.5,0.7-0.7,1.7-0.4,2.7c0.6,2.1,2,4.2,3.9,5.5   c1.8,1.4,3.9,2.1,6,2.3c2.1,0.2,4.3,0,6.3-0.8c2-0.8,3.9-2.2,5.2-4.1c1.1-1.6,1.6-3.4,1.8-5.1c0.1-1.7,0-3.5-0.6-5.2   C68.7,116.9,67.6,115.3,66.2,114.2z"/><path d="M126.6,114.2c-1.4-1.2-3-1.9-4.6-2.3c-3.3-0.7-6.7-0.1-9.3,1.8c-1.3,1-2.4,2.3-3,3.7c-0.6,1.4-0.8,3-0.7,4.4   c0,0.4,0.4,0.6,0.8,0.6c0.4,0,0.8-0.2,0.8-0.5l0,0c0.5-2.5,2-4.3,3.9-5.1c1.9-0.8,4.2-0.8,6-0.1c1.9,0.7,3.1,2.1,3.5,3.7   c0.2,0.8,0.3,1.8,0.1,2.7c-0.1,0.9-0.4,1.7-0.8,2.3c-1,1.6-3.3,2.5-5.6,2.2c-1.1-0.1-2.2-0.5-3-1.1c-0.8-0.6-1.3-1.4-1.6-2.3   c-0.1-0.5-0.5-0.8-1.1-1.2c-0.6-0.3-1.4-0.6-2.2-0.6c-0.9,0-1.6,0.3-2.2,1c-0.5,0.7-0.7,1.7-0.4,2.7c0.6,2.1,2,4.2,3.9,5.5   c1.8,1.4,3.9,2.1,6,2.3c2.1,0.2,4.3,0,6.3-0.8c2-0.8,3.9-2.2,5.2-4.1c1.1-1.6,1.6-3.4,1.8-5.1c0.1-1.7,0-3.5-0.6-5.2   C129.1,116.9,128,115.3,126.6,114.2z"/><path d="M156.3,131.6c1.8-1.3,3.2-3.3,3.9-5.5c0.3-1,0.1-2-0.4-2.7c-0.5-0.7-1.3-1-2.2-1c-0.9,0-1.7,0.3-2.2,0.6   c-0.6,0.4-1,0.7-1.1,1.2c-0.3,1-0.8,1.7-1.6,2.3c-0.8,0.6-1.8,1-3,1.1c-2.3,0.3-4.6-0.7-5.6-2.2c-0.4-0.6-0.7-1.4-0.8-2.3   c-0.1-0.9-0.1-1.9,0.1-2.7c0.4-1.6,1.6-3,3.5-3.7c1.8-0.7,4.1-0.8,6,0.1c1.9,0.8,3.4,2.7,3.9,5.1v0c0.1,0.3,0.4,0.5,0.8,0.5   c0.4,0,0.7-0.2,0.8-0.6c0.1-1.4-0.1-3-0.7-4.4c-0.6-1.5-1.7-2.7-3-3.7c-2.6-1.9-6.1-2.6-9.3-1.8c-1.6,0.4-3.3,1.1-4.6,2.3   c-1.4,1.2-2.5,2.7-3.1,4.4c-0.6,1.7-0.8,3.5-0.6,5.2c0.1,1.7,0.7,3.6,1.8,5.1c1.3,1.9,3.2,3.3,5.2,4.1c2,0.8,4.2,1.1,6.3,0.8   C152.4,133.7,154.5,132.9,156.3,131.6z"/><path d="M194.4,68.6c-14.8-1.5-29.7-2.3-44.6-2.3h-27.3c-1.2,0-2.2,0.4-2.9,1.1c-0.1-0.2-0.2-0.4-0.4-0.6   c-2.7-4.3-7.1-7.2-11.6-9.1c-4.5-1.9-9.3-2.8-14.1-3.2c-4.7-0.4-9.5-0.4-14.2,0.2c-5.8,0.8-11.8,2.2-17.1,5.8c-2.6,1.8-5,4-6.7,6.8   c-0.5,0.6-0.8,1.4-1.2,2.1c-0.4,0.7-0.7,1.4-1,2.2l-0.8,2.3c-0.2,0.8-0.3,1.5-0.5,2.3c-0.2,0.7-0.2,1.3-0.1,1.9   c-0.8,0.1-1.5,0.1-2.4,0.3c-0.9,0.2-1.8,0.5-2.6,0.9c-0.4,0.2-0.8,0.4-1.1,0.7c-0.4,0.2-0.7,0.5-1,0.7c-2.6,2-4.5,4.3-6.2,6.5   c-1.7,2.3-3.3,4.6-4.8,6.9l-1.1,1.7l-0.9,1.3c-0.4,0.6-0.8,1.1-1.2,1.7c-0.1,0.2-0.3,0.4-0.4,0.6c-3.7,0-7.5,0.4-11.3,1.8   c-2.4,1-4.6,2.2-6.6,3.8c-2,1.6-3.7,3.6-5,5.9c-2.6,4.6-3.2,10.1-2.2,15.1c1.3,6.1,5,11.7,10.2,15.1c2.6,1.8,5.6,2.9,8.7,3.5   c1.5,0.3,3.2,0.4,4.5,0.5l4.1,0.2c11,0.4,21.9,0.3,32.8,0.1l16.3-0.3c5.4-0.1,10.8,0,16.3,0h32.6c10.3,0,18.7-1.4,18.7-3.1   c0-1.7-8.4-3.1-18.7-3.1H98.1c-5.4,0-10.9,0-16.3,0l-16.3,0.3c-10.9,0.2-21.7,0.4-32.4-0.1c-2.6-0.1-5.5-0.2-7.7-0.6   c-2.3-0.4-4.5-1.3-6.4-2.6c-3.8-2.5-6.6-6.7-7.5-11.2c-0.8-3.7-0.3-7.6,1.5-10.8c0.9-1.6,2.1-3,3.6-4.2c1.4-1.2,3.2-2.2,4.9-2.8   c1.5-0.6,3.2-0.9,5-1.1c6,0,12,0,18,0h87.7c4.3,0,8-0.5,10.3-1.3c1.4,0,2.9,0,4.3,0c2.2,0.1,4.2,0.1,6.2,0.6   c3.9,0.9,7.6,3.1,10,6.4c2.5,3.2,3.8,7.4,3.9,11.5c0.1,4.2-1.1,8.4-3.7,11.7c-2.5,3.3-6.4,5.5-10.6,6.2h0c-1.1,0.2-1.9,0.3-2.5,0.5   c-0.6,0.2-0.9,0.4-0.9,0.6c0,0.2,0.3,0.4,0.9,0.5c0.6,0.1,1.5,0.2,2.7,0h0c4.6-0.5,9.1-2.7,12.1-6.4c3-3.6,4.6-8.4,4.7-13   c0.1-4.7-1.3-9.5-4.1-13.4c-2.7-4-7-6.8-11.7-8c-2.3-0.6-4.8-0.8-7-0.9c-0.9,0-1.9-0.1-2.8-0.1c0-0.1-0.1-0.1-0.1-0.2l0,0   c-2.9-4.5-5.5-9.4-8.9-13.8c-1.7-2.2-3.6-4.4-6.4-5.9c-0.7-0.3-1.5-0.7-2.2-0.9c-0.8-0.2-1.5-0.3-2.3-0.4c-0.5-0.1-1.1-0.1-1.6-0.1   c0-2.3-0.2-4.6-0.9-6.8c0.2,0,0.5,0.1,0.7,0.1h27.3c14.9,0,29.8-0.8,44.6-2.3C195.4,70.1,195.4,68.7,194.4,68.6z M58.8,75.5   l0.6-1.7c0.2-0.6,0.4-1.1,0.7-1.6c0.3-0.5,0.5-1.1,0.8-1.5c1.2-2,3-3.6,4.9-5c4-2.7,9.1-4.1,14.3-4.7c4.3-0.5,8.7-0.6,13.1-0.5   c4.4,0.2,8.7,0.7,12.7,2c4,1.3,7.8,3.2,10.4,6.4c2.4,2.8,3.9,6.5,4.5,10.4c-0.3,0-0.6,0-0.9,0c-2.8,0.1-5.6,0.4-8.1,0.3l-8.2-0.2   l-16.4-0.3l-16.4-0.3l-4.1-0.1c-1.3,0-2.8,0-4-0.1c-1.5-0.1-3.1-0.3-4.7-0.4c0.1-0.3,0.2-0.7,0.3-1C58.5,76.7,58.6,76.1,58.8,75.5z    M127.4,83.4c2.1,1,4,2.9,5.7,4.9c3.3,3.8,6,8.1,9.1,12.3c-0.4,0-0.8,0-1.2,0c-2.3-0.6-5.4-0.9-8.8-0.9H44.4l-6.3,0   c-0.4,0-0.2,0-0.3,0l0,0l0,0l0,0c0,0,0,0,0,0l0,0l0,0l0.3-0.4l1.1-1.7c1.5-2.3,2.9-4.5,4.5-6.6c1.5-2.1,3.2-4.1,4.9-5.4   c0.2-0.2,0.4-0.3,0.6-0.5c0.2-0.1,0.4-0.3,0.6-0.4c0.4-0.2,0.8-0.4,1.2-0.5c1-0.2,2.2-0.3,3.4-0.3c2.5,0,5.2,0.3,8.1,0.4   c1.6,0.1,2.8,0,4.2,0l4.1-0.1L87.3,84l16.4-0.3l8.2-0.2c2.9-0.1,5.6-0.5,8.3-0.7C122.7,82.6,125.4,82.4,127.4,83.4z"/></g></svg>