<svg xmlns="http://www.w3.org/2000/svg" xmlns:xlink="http://www.w3.org/1999/xlink" version="1.1" x="0px" y="0px" viewBox="0 0 100 125" enable-background="new 0 0 100 100" xml:space="preserve"><path d="M35.5,53.9l-1.1,2.1C31.7,61.5,26.1,65,20,65v30h28.8V45.1C43.1,45.5,38.1,48.8,35.5,53.9z M43.8,90H25v-3.8h18.8V90z   M43.8,85H25v-3.8h18.8V85z M43.8,80H25v-3.8h18.8V80z M43.8,75H25v-3.8h18.8V75z M43.8,70H25v-0.6c2.5-0.6,4.9-1.7,7.1-3.2h11.7V70  z M43.8,65H33.7c1.3-1.1,2.5-2.3,3.5-3.8h6.6V65z M43.8,51.9V55h-3.1C41.5,53.8,42.5,52.7,43.8,51.9z M40,56.3h3.8V60H38  c0.3-0.6,0.7-1.1,1-1.7L40,56.3z"/><path d="M65.5,56.1l-1.1-2.1c-2.6-5.1-7.6-8.5-13.2-8.9V95H80V65C73.9,65,68.3,61.5,65.5,56.1z M56.3,51.9c1.2,0.8,2.2,1.9,3.1,3.1  h-3.1V51.9z M56.3,56.3H60l1,2c0.3,0.6,0.6,1.2,1,1.7h-5.8V56.3z M56.3,61.3h6.6c1,1.4,2.2,2.7,3.5,3.8H56.3V61.3z M75,90H56.3v-3.8  H75V90z M75,85H56.3v-3.8H75V85z M75,80H56.3v-3.8H75V80z M75,75H56.3v-3.8H75V75z M75,70H56.3v-3.8h11.7c2.1,1.5,4.5,2.5,7.1,3.2  V70z"/><path d="M17.5,33.3l1.1-1.1l3.5,1.2l3.3-3.5l-1.1-3.4l4.5-4.5l-4.5-4.5L34.5,7.3L32.2,5l-2.3,2.3l-1.1-1.1l-2.3,2.3l1.1,1.1L22,15.2  l-1.1-1.1L7.3,27.7l1.1,1.1L5,29.9v2.3h4.5l1.1,3.4c-2.8,2.8-3.7,6.9-2.5,10.6l3.6,10.9l7.9-7.9l-2.3-2.3  C13.7,43.2,13.7,37.1,17.5,33.3z"/><path d="M92.7,27.7L79.1,14.1L78,15.2l-5.7-5.7l1.1-1.1l-2.3-2.3l-1.1,1.1L67.8,5l-2.3,2.3l10.2,10.2L71.2,22l4.5,4.5l-1.1,3.4  l3.3,3.5l3.5-1.2l1.1,1.1c3.8,3.8,3.8,9.8,0,13.6l-2.3,2.3l7.9,7.9l3.6-10.9c1.2-3.7,0.3-7.8-2.5-10.6l1.1-3.4H95v-2.3l-3.4-1.1  L92.7,27.7z"/><polygon points="56.6,26 63.1,19.5 54,18.2 50,10 45.9,18.2 36.8,19.5 43.4,26 41.9,35 50,30.7 58.1,35 "/></svg>